<?xml version="1.0" encoding="utf-8"?>
<!-- Generator: Adobe Illustrator 24.0.2, SVG Export Plug-In . SVG Version: 6.00 Build 0)  -->
<svg version="1.1" id="Calque_1" xmlns="http://www.w3.org/2000/svg" xmlns:xlink="http://www.w3.org/1999/xlink" x="0px" y="0px"
	 viewBox="0 0 77 77" style="enable-background:new 0 0 77 77;" xml:space="preserve">
<style type="text/css">
	.st0{fill:none;stroke:#FFFFFF;stroke-width:7;stroke-linecap:round;stroke-linejoin:round;stroke-miterlimit:10;}
	.st1{fill:#FFFFFF;}
</style>
<g>
	<path class="st0" d="M59.93,72.32H17.51c-6.97,0-12.61-5.65-12.61-12.61V17.28c0-6.97,5.65-12.61,12.61-12.61h42.42
		c6.97,0,12.61,5.65,12.61,12.61v42.42C72.55,66.67,66.9,72.32,59.93,72.32z"/>
	<g>
		<path class="st1" d="M46.26,23.87h3.77v-8.2l-5.67-0.01c-8.04,0-11.85,4.78-11.85,11.59v6.45H26.2v7.79h6.29v19.81h9.44V41.51
			h6.29l1.79-7.79h-8.08V28.4C41.94,26.22,43.13,23.87,46.26,23.87z"/>
	</g>
</g>
</svg>
