<?xml version="1.0" encoding="utf-8"?>
<!-- Generator: Adobe Illustrator 24.0.2, SVG Export Plug-In . SVG Version: 6.00 Build 0)  -->
<svg version="1.1" id="Calque_1" xmlns="http://www.w3.org/2000/svg" xmlns:xlink="http://www.w3.org/1999/xlink" x="0px" y="0px"
	 viewBox="0 0 77.01 77.01" style="enable-background:new 0 0 77.01 77.01;" xml:space="preserve">
<style type="text/css">
	.st0{fill:#FFFFFF;}
	.st1{fill:none;stroke:#FFFFFF;stroke-width:7;stroke-linecap:round;stroke-linejoin:round;stroke-miterlimit:10;}
</style>
<g>
	<g>
		<g>
			<circle class="st0" cx="60.45" cy="17.74" r="3.26"/>
			<path class="st0" d="M60.45,14.78c1.64,0,2.97,1.33,2.97,2.97c0,1.64-1.33,2.97-2.97,2.97c-1.64,0-2.97-1.33-2.97-2.97
				C57.49,16.11,58.82,14.78,60.45,14.78 M60.45,14.18c-1.96,0-3.56,1.6-3.56,3.56s1.6,3.56,3.56,3.56c1.96,0,3.56-1.6,3.56-3.56
				C64.01,15.77,62.42,14.18,60.45,14.18L60.45,14.18z"/>
		</g>
		<g>
			<path class="st0" d="M38.51,26.05c6.87,0,12.46,5.59,12.46,12.46s-5.59,12.46-12.46,12.46s-12.46-5.59-12.46-12.46
				S31.64,26.05,38.51,26.05 M38.51,20.71c-9.83,0-17.8,7.97-17.8,17.8s7.97,17.8,17.8,17.8s17.8-7.97,17.8-17.8
				S48.34,20.71,38.51,20.71L38.51,20.71z"/>
		</g>
	</g>
	<path class="st1" d="M59.72,72.33H17.29c-6.97,0-12.61-5.65-12.61-12.61V17.29c0-6.97,5.65-12.61,12.61-12.61h42.42
		c6.97,0,12.61,5.65,12.61,12.61v42.42C72.33,66.68,66.68,72.33,59.72,72.33z"/>
</g>
</svg>
